<svg width="42" height="40" viewBox="0 0 42 40" fill="none" xmlns="http://www.w3.org/2000/svg">
<path d="M24.9048 19.111C24.9606 19.1669 24.9885 19.231 24.9885 19.3036C24.9885 19.3761 24.9606 19.4403 24.9048 19.4961L21.0041 23.3968C20.9483 23.4526 20.8841 23.4805 20.8116 23.4805C20.7391 23.4805 20.6749 23.4526 20.6191 23.3968L16.7184 19.4961C16.6626 19.4403 16.6347 19.3761 16.6347 19.3036C16.6347 19.231 16.6626 19.1669 16.7184 19.111L17.1369 18.6925C17.1927 18.6367 17.2569 18.6088 17.3295 18.6088C17.402 18.6088 17.4662 18.6367 17.522 18.6925L20.8116 21.9821L24.1012 18.6925C24.157 18.6367 24.2212 18.6088 24.2937 18.6088C24.3663 18.6088 24.4305 18.6367 24.4863 18.6925L24.9048 19.111Z" fill="white"/>
<path opacity="0.7" d="M21.0014 0.5C31.7959 0.500175 40.5444 9.23158 40.5444 20C40.5444 30.7684 31.7959 39.4998 21.0014 39.5C10.2067 39.5 1.45746 30.7685 1.45746 20C1.45746 9.23147 10.2067 0.5 21.0014 0.5Z" stroke="white"/>
</svg>
